M48
INCH,TZ
T01F00S00C0.028
T02F00S00C0.030
T03F00S00C0.040
T04F00S00C0.055
T05F00S00C0.058
T06F00S00C0.025
%
T01
X5500Y1500
X5600Y1500
X5700Y1500
X5800Y1500
X5900Y1500
X6000Y1500
X6100Y1500
X6200Y1500
X6200Y1800
X6100Y1800
X6000Y1800
X5900Y1800
X5800Y1800
X5700Y1800
X5600Y1800
X5500Y1800
X4700Y1500
X4800Y1500
X4900Y1500
X5000Y1500
X5100Y1500
X5200Y1500
X5300Y1500
X5400Y1500
X5400Y1800
X5300Y1800
X5200Y1800
X5100Y1800
X5000Y1800
X4900Y1800
X4800Y1800
X4700Y1800
X3700Y1500
X3800Y1500
X3900Y1500
X4000Y1500
X4100Y1500
X4200Y1500
X4300Y1500
X4400Y1500
X4400Y1800
X4300Y1800
X4200Y1800
X4100Y1800
X4000Y1800
X3900Y1800
X3800Y1800
X3700Y1800
X2900Y1500
X3000Y1500
X3100Y1500
X3200Y1500
X3300Y1500
X3400Y1500
X3500Y1500
X3600Y1500
X3600Y1800
X3500Y1800
X3400Y1800
X3300Y1800
X3200Y1800
X3100Y1800
X3000Y1800
X2900Y1800
X1900Y1500
X2000Y1500
X2100Y1500
X2200Y1500
X2300Y1500
X2400Y1500
X2500Y1500
X2600Y1500
X2600Y1800
X2500Y1800
X2400Y1800
X2300Y1800
X2200Y1800
X2100Y1800
X2000Y1800
X1900Y1800
X3700Y3600
X3800Y3600
X3900Y3600
X4000Y3600
X4100Y3600
X4200Y3600
X4300Y3600
X4400Y3600
X4400Y3900
X4300Y3900
X4200Y3900
X4100Y3900
X4000Y3900
X3900Y3900
X3800Y3900
X3700Y3900
X1100Y1500
X1200Y1500
X1300Y1500
X1400Y1500
X1500Y1500
X1600Y1500
X1700Y1500
X1800Y1500
X1800Y1800
X1700Y1800
X1600Y1800
X1500Y1800
X1400Y1800
X1300Y1800
X1200Y1800
X1100Y1800
X5500Y3600
X5600Y3600
X5700Y3600
X5800Y3600
X5900Y3600
X6000Y3600
X6100Y3600
X6200Y3600
X6200Y3900
X6100Y3900
X6000Y3900
X5900Y3900
X5800Y3900
X5700Y3900
X5600Y3900
X5500Y3900
X4700Y3600
X4800Y3600
X4900Y3600
X5000Y3600
X5100Y3600
X5200Y3600
X5300Y3600
X5400Y3600
X5400Y3900
X5300Y3900
X5200Y3900
X5100Y3900
X5000Y3900
X4900Y3900
X4800Y3900
X4700Y3900
X2900Y3600
X3000Y3600
X3100Y3600
X3200Y3600
X3300Y3600
X3400Y3600
X3500Y3600
X3600Y3600
X3600Y3900
X3500Y3900
X3400Y3900
X3300Y3900
X3200Y3900
X3100Y3900
X3000Y3900
X2900Y3900
X1900Y3600
X2000Y3600
X2100Y3600
X2200Y3600
X2300Y3600
X2400Y3600
X2500Y3600
X2600Y3600
X2600Y3900
X2500Y3900
X2400Y3900
X2300Y3900
X2200Y3900
X2100Y3900
X2000Y3900
X1900Y3900
X1100Y3600
X1200Y3600
X1300Y3600
X1400Y3600
X1500Y3600
X1600Y3600
X1700Y3600
X1800Y3600
X1800Y3900
X1700Y3900
X1600Y3900
X1500Y3900
X1400Y3900
X1300Y3900
X1200Y3900
X1100Y3900
X1100Y4200
X1200Y4200
X1300Y4200
X1400Y4200
X1500Y4200
X1600Y4200
X1700Y4200
X1800Y4200
X1900Y4200
X1900Y4500
X1800Y4500
X1700Y4500
X1600Y4500
X1500Y4500
X1400Y4500
X1300Y4500
X1200Y4500
X1100Y4500
X2900Y4200
X3000Y4200
X3100Y4200
X3200Y4200
X3300Y4200
X3400Y4200
X3500Y4200
X3600Y4200
X3700Y4200
X3700Y4500
X3600Y4500
X3500Y4500
X3400Y4500
X3300Y4500
X3200Y4500
X3100Y4500
X3000Y4500
X2900Y4500
X5100Y4200
X5200Y4200
X5300Y4200
X5400Y4200
X5500Y4200
X5600Y4200
X5700Y4200
X5800Y4200
X5900Y4200
X5900Y4500
X5800Y4500
X5700Y4500
X5600Y4500
X5500Y4500
X5400Y4500
X5300Y4500
X5200Y4500
X5100Y4500
T02
X5000Y850
X5000Y1250
X4900Y850
X4900Y1250
X4800Y850
X4800Y1250
X4700Y850
X4700Y1250
X1500Y850
X1500Y1250
X5600Y850
X5600Y1250
X5700Y850
X5700Y1250
X5800Y850
X5800Y1250
X5900Y850
X5900Y1250
X6000Y850
X6000Y1250
X2900Y850
X2900Y1250
X3000Y850
X3000Y1250
X3200Y850
X3200Y1250
X3100Y850
X3100Y1250
X3300Y850
X3300Y1250
X6100Y850
X6100Y1250
X6200Y850
X6200Y1250
X5200Y850
X5200Y1250
X3500Y850
X3500Y1250
X3600Y850
X3600Y1250
X3700Y850
X3700Y1250
X3800Y850
X3800Y1250
X3900Y850
X3900Y1250
X4000Y850
X4000Y1250
X4100Y850
X4100Y1250
X4200Y850
X4200Y1250
X1100Y850
X1100Y1250
X5100Y850
X5100Y1250
X1200Y850
X1200Y1250
X1300Y850
X1300Y1250
X1400Y850
X1400Y1250
X4300Y850
X4300Y1250
X4400Y850
X4400Y1250
X3400Y850
X3400Y1250
X1700Y850
X1700Y1250
X1800Y850
X1800Y1250
X1900Y850
X1900Y1250
X2000Y850
X2000Y1250
X2100Y850
X2100Y1250
X2200Y850
X2200Y1250
X2300Y850
X2300Y1250
X2400Y850
X2400Y1250
X5400Y850
X5400Y1250
X5500Y850
X5500Y1250
X5700Y3050
X5700Y3450
X2500Y850
X2500Y1250
X2600Y850
X2600Y1250
X1600Y850
X1600Y1250
X5500Y3050
X5500Y3450
X5100Y3050
X5100Y3450
X4900Y3050
X4900Y3450
X4700Y3050
X4700Y3450
X5300Y3050
X5300Y3450
X4300Y3050
X4300Y3450
X4100Y3050
X4100Y3450
X3900Y3050
X3900Y3450
X3700Y3050
X3700Y3450
X3500Y3050
X3500Y3450
X3300Y3050
X3300Y3450
X3100Y3050
X3100Y3450
X2900Y3050
X2900Y3450
X2500Y3050
X2500Y3450
X5300Y850
X5300Y1250
X2300Y3050
X2300Y3450
X2100Y3050
X2100Y3450
X1900Y3050
X1900Y3450
X1700Y3050
X1700Y3450
X1500Y3050
X1500Y3450
X1300Y3050
X1300Y3450
X1100Y3050
X1100Y3450
X6100Y3050
X6100Y3450
X6100Y3050
X6100Y3450
X5900Y3050
X5900Y3450
X2050Y4200
X2050Y4600
X4000Y4200
X4000Y4600
X6050Y4200
X6050Y4600
T03
X50Y3650
X150Y3650
X50Y3550
X150Y3550
X50Y3450
X150Y3450
X50Y3350
X150Y3350
X50Y3250
X150Y3250
X50Y3150
X150Y3150
X50Y3050
X150Y3050
X50Y2950
X150Y2950
X50Y2850
X150Y2850
X50Y2750
X150Y2750
X50Y2650
X150Y2650
X50Y2550
X150Y2550
X50Y2450
X150Y2450
X50Y2350
X150Y2350
X50Y2250
X150Y2250
X50Y2150
X150Y2150
X50Y2050
X150Y2050
X50Y1950
X150Y1950
X50Y1850
X150Y1850
X50Y1750
X150Y1750
X50Y1650
X150Y1650
X50Y1550
X150Y1550
X50Y1450
X150Y1450
X50Y1350
X150Y1350
X50Y1250
X150Y1250
T04
X2300Y4800
X2500Y4800
X2700Y4800
X2100Y4800
X1900Y4800
X1700Y4800
X1500Y4800
X1300Y4800
X1100Y4800
X1100Y600
X1300Y600
X1500Y600
X1700Y600
X1900Y600
X2100Y600
X6300Y600
X2500Y600
X2700Y600
X2900Y600
X3100Y600
X3300Y600
X3500Y600
X3700Y600
X3900Y600
X4100Y600
X4300Y600
X4500Y600
X4700Y600
X4900Y600
X5100Y600
X5300Y600
X5500Y600
X5700Y600
X5900Y600
X6100Y600
T05
X6100Y4800
X5900Y4800
X5700Y4800
X5500Y4800
X5300Y4800
X5100Y4800
X4900Y4800
X4700Y4800
X4500Y4800
X4300Y4800
X4100Y4800
X3900Y4800
X3700Y4800
X3500Y4800
X3300Y4800
X3100Y4800
X2900Y4800
X6300Y4800
X500Y4800
X700Y4800
X900Y4800
X2300Y600
T06
X2600Y1350
X2500Y1350
X1300Y1350
X2400Y1350
X2300Y1350
X2200Y1350
X2100Y1350
X2000Y1350
X1900Y1350
X1800Y1350
X1700Y1350
X1600Y1350
X1500Y1350
X1400Y1350
X1200Y1350
X1100Y1350
X4400Y1350
X4300Y1350
X3100Y1350
X4200Y1350
X4100Y1350
X4000Y1350
X3900Y1350
X3800Y1350
X3700Y1350
X3600Y1350
X3500Y1350
X3400Y1350
X3300Y1350
X3200Y1350
X3000Y1350
X2900Y1350
X4700Y1350
X4800Y1350
X5000Y1350
X5100Y1350
X5200Y1350
X5300Y1350
X6200Y1350
X6100Y1350
X4900Y1350
X6000Y1350
X5900Y1350
X5800Y1350
X5700Y1350
X5600Y1350
X5500Y1350
X5400Y1350
M30
