/* XPM */
static char * NEpipe_xpm[] = {
"45 45 88 1",
" 	c None",
".	c #2A2A2A",
"+	c #252525",
"@	c #383838",
"#	c #3B3B3B",
"$	c #414141",
"%	c #474747",
"&	c #4B4B4B",
"*	c #4D4D4D",
"=	c #4C4C4C",
"-	c #5F5F5F",
";	c #606060",
">	c #616161",
",	c #626262",
"'	c #5D5D5D",
")	c #5B5B5B",
"!	c #585858",
"~	c #555555",
"{	c #535353",
"]	c #505050",
"^	c #434343",
"/	c #111111",
"(	c #303030",
"_	c #363636",
":	c #515151",
"<	c #545454",
"[	c #5C5C5C",
"}	c #5E5E5E",
"|	c #4F4F4F",
"1	c #454545",
"2	c #3A3A3A",
"3	c #333333",
"4	c #181818",
"5	c #343434",
"6	c #3F3F3F",
"7	c #525252",
"8	c #575757",
"9	c #4E4E4E",
"0	c #3C3C3C",
"a	c #2B2B2B",
"b	c #404040",
"c	c #595959",
"d	c #565656",
"e	c #4A4A4A",
"f	c #373737",
"g	c #1F1F1F",
"h	c #2F2F2F",
"i	c #424242",
"j	c #494949",
"k	c #5A5A5A",
"l	c #292929",
"m	c #0F0F0F",
"n	c #464646",
"o	c #1E1E1E",
"p	c #323232",
"q	c #2D2D2D",
"r	c #313131",
"s	c #444444",
"t	c #393939",
"u	c #232323",
"v	c #484848",
"w	c #191919",
"x	c #3D3D3D",
"y	c #151515",
"z	c #ECECEC",
"A	c #E8E8E8",
"B	c #0D0D0D",
"C	c #3E3E3E",
"D	c #212121",
"E	c #353535",
"F	c #2C2C2C",
"G	c #1A1A1A",
"H	c #262626",
"I	c #202020",
"J	c #E7E7E7",
"K	c #1B1B1B",
"L	c #1D1D1D",
"M	c #2E2E2E",
"N	c #1C1C1C",
"O	c #646464",
"P	c #6D6D6D",
"Q	c #161616",
"R	c #222222",
"S	c #E5E5E5",
"T	c #070707",
"U	c #272727",
"V	c #282828",
"W	c #141414",
"                                             ",
" .+@#$%&**=--;>,,,>;;-')!~{]^&               ",
" /(_#^&:<{{)['}-----}')!{|*123               ",
" 4_5@6%*]:7['}-;;;;>>>-)8{]9*0               ",
" a+@#b1&]{<)[}-;;;;'''[cd7|e#f               ",
" gh3#i1j|7:8k};-}}}}}}-'c{9]%$l              ",
" m33#i1j|{7dk};-}}-}}}-}c{|7n*h              ",
" aop2i1j]{7dc'--}}-}}}-}k~]79q!+             ",
"  ar2$sj]{7~![--}}--}}-})8{90{th             ",
"  uh@6^v|77<8[}}}}--}}}-'cd:[cn(r            ",
"  wq_x$n*:]{d)}}}}--}}}-})!]|i@9xy           ",
" zpa3#6s=||7dk'}}}-;}}}--[k[vcnjx3      z    ",
"A B.p2C^&997~k'}}}-;-}}--')j-{&71^fD         ",
"   .(0E1]**9:~k'-----------cd79enb0(p        ",
"   4Fp{5t<9|:~k'-----------c8<:9eni$5_a      ",
"   Grpl$|j=|:~c'-;;--------)!d<{]=jv3Hs2I+  J",
"    y_tt3|8|:~![}-;--------')!8d{|=j<3xxhsGlE",
"    KICeb^C|]{dk[}----------'k!8<]*9sk0bpfctE",
"     2L(e6**|:<8k'}--------;})kcd7|$}#d~n1Ms_",
"     Nslts&=*|7~!)'---------'[))k8<OCPijik9|s",
"     QR5nh$&=9]<8k[--------}[[[}')c<jv8v8&|:|",
"      gq(hss%=]7{d8['}----};;;--}}}!!d<{:||{{",
"       lM62in&9]:<~[['-----;;;--}}}kc!8~{7:<<",
"       y5#5bsv=*|:{))'}-;;;;;----}}'[)k!8d~d~",
"    S   Lg^x$ne=9]7ck)'--;;---------}}'[)kkc8",
"        r_.2C^%e*|:d8c)'}----------;;--}''')c",
"         Tr5@6s%&9:{<dc)'}}}}----;;-------}})",
"          Uqpt6sv=|]:<8c)['}}}--;;;}}}}-----'",
"           VqE#$ne*9|7~!k)[}}}--;;;'''}}}--;}",
"           yU._#x&je*]77{~dk)['------------>'",
"            4+@@v0^e*]7{<d!!c)'}----}}}}}}}>'",
"             gNpF0Cnj*|]7<dd8c)'}--}}}}}}}};[",
"              Dp.x$6^%e=9:{7<d!)['}}}}}-----[",
"               BUaF2Cinv&9:|]{~8ckk'''}}---})",
"                GUhEtCinj*|=*|7<~~dkk))[''}'k",
"                  QMpf06^%ee&*|]:::dd88!ckk'c",
"                   H.(Etx$sje&*999977{<~d88[c",
"                    NaMap0%6|3*1<<:9!%|:cv7!*",
"                      Ih2C(##nb~xC:99)<|j~~~e",
"                      z RLEUjCh&n~fn0%91=8*:v",
"                          4Cga2qCC1njx]67nj9n",
"                            y5r@(Ujp10x^s#9js",
"                               +aMa0#2.v@fE6x",
"                                  DRgFCgrC#r3",
"                                       DuWIHa"};
