/* XPM */
static char * led_off_xpm[] = {
"13 13 6 1",
" 	c None",
".	c #111111",
"+	c #191919",
"@	c #A6A6A6",
"#	c #FFFFFF",
"$	c #5B5B5B",
"             ",
"   .++++.    ",
"  ++++++++   ",
" .+@#++++$.  ",
" ++#@+++$$+  ",
" +++++++$$+  ",
" ++++++$@$+. ",
" +++++$@@$+. ",
" .++$$@@$+.. ",
"  +$$$$$++...",
"   .++++.... ",
"      ...... ",
"         .   "};
