/* XPM */
static char * NEpipe_xpm[] = {
"43 44 111 2",
"  	c None",
". 	c #272727",
"+ 	c #313131",
"@ 	c #3B3B3B",
"# 	c #404040",
"$ 	c #444444",
"% 	c #4A4A4A",
"& 	c #4F4F4F",
"* 	c #505050",
"= 	c #545454",
"- 	c #565656",
"; 	c #595959",
"> 	c #5C5C5C",
", 	c #5E5E5E",
"' 	c #5F5F5F",
") 	c #5D5D5D",
"! 	c #606060",
"~ 	c #5B5B5B",
"{ 	c #585858",
"] 	c #555555",
"^ 	c #3A3A3A",
"/ 	c #707070",
"( 	c #3F3F3F",
"_ 	c #323232",
": 	c #252525",
"< 	c #303030",
"[ 	c #434343",
"} 	c #4E4E4E",
"| 	c #5A5A5A",
"1 	c #4D4D4D",
"2 	c #343434",
"3 	c #292929",
"4 	c #E9E9E9",
"5 	c #242424",
"6 	c #2F2F2F",
"7 	c #393939",
"8 	c #3E3E3E",
"9 	c #424242",
"0 	c #494949",
"a 	c #484848",
"b 	c #535353",
"c 	c #2E2E2E",
"d 	c #2B2B2B",
"e 	c #616161",
"f 	c #575757",
"g 	c #4B4B4B",
"h 	c #414141",
"i 	c #474747",
"j 	c #D3D3D3",
"k 	c #515151",
"l 	c #4C4C4C",
"m 	c #2D2D2D",
"n 	c #232323",
"o 	c #383838",
"p 	c #282828",
"q 	c #202020",
"r 	c #363636",
"s 	c #525252",
"t 	c #3D3D3D",
"u 	c #1D1D1D",
"v 	c #333333",
"w 	c #464646",
"x 	c #101010",
"y 	c #373737",
"z 	c #3C3C3C",
"A 	c #FFFFFF",
"B 	c #0C0C0C",
"C 	c #454545",
"D 	c #151515",
"E 	c #181818",
"F 	c #2A2A2A",
"G 	c #ECECEC",
"H 	c #E5E5E5",
"I 	c #D9D9D9",
"J 	c #000000",
"K 	c #050505",
"L 	c #696969",
"M 	c #E8E8E8",
"N 	c #666666",
"O 	c #1F1F1F",
"P 	c #1E1E1E",
"Q 	c #1C1C1C",
"R 	c #1A1A1A",
"S 	c #626262",
"T 	c #646464",
"U 	c #353535",
"V 	c #EBEBEB",
"W 	c #171717",
"X 	c #2C2C2C",
"Y 	c #E6E6E6",
"Z 	c #131313",
"` 	c #DCDCDC",
" .	c #191919",
"..	c #212121",
"+.	c #262626",
"@.	c #636363",
"#.	c #DDDDDD",
"$.	c #E7E7E7",
"%.	c #121212",
"&.	c #DFDFDF",
"*.	c #1B1B1B",
"=.	c #E0E0E0",
"-.	c #161616",
";.	c #E3E3E3",
">.	c #0D0D0D",
",.	c #141414",
"'.	c #DADADA",
").	c #E2E2E2",
"!.	c #F9F9F9",
"~.	c #EFEFEF",
"{.	c #F2F2F2",
". + @ # $ % & * = - ; > , ' , ) ! ' , , ) ~ { ] ^ / ( @ _                             ",
": < ^ ( [ % } & = - | ) ' ' ' , ! ' , , , > { ] ) [ 1 2 3   4                         ",
"5 6 7 8 9 0 } & = - | ) ! ! ! ' ! ' , , , > ; - a b = c d                             ",
"5 6 7 8 [ % & * = - | , ! e ! ! ! ' , , ' ) ; f g * h i 0   j                         ",
"5 6 ^ ( $ g * k b ] ; ) ! e ! ! ! ' , ' ' , | { l g k m a                             ",
"n c o 8 [ % * k k = { > ' ! ! ' ' ' , ' ! , ~ { k g | f p 5                           ",
"q d r @ # a 1 & * s - ~ , ' ' ' ' ' , ' ! ' > ; ] } r % * t                           ",
"u p v 7 8 w g 1 & k ] | ) , , , ' ' , ' ! ' > | ' @ ) g @ + m                         ",
"x o 5 t 7 a a $ & s - ~ , ! ! ! ' ' ' ' ' ' ' ' ~ $ > f y % z                         ",
"A B 5 1 # C b a & s - | ) ' ! ! ' ' ' ' ' ' ' ' > { & g C 0 D g                       ",
"A E k : F 7 ( 1 & k ] ; > , ' ' ' ' ' ' ' ' ' ' * e } } ; - $ m F G               H   ",
"I z J ; ( w 9 f } * b f | ) , ' ' ' ' ' ' ' ' ' > , = & s ( f w c _     G             ",
"  K _ _ 6 t C # } & s ] ; ~ ) , ' ' ' ' ' ' ' ' L k ~ & - $ l t $ } : x               ",
"M   3 6 7 & o ~ 1 } * b f | > , ' ' ' ' ' ' ' ' > & L * { > ; } o + a # 2             ",
"    E r c @ h @ 1 } & s ] ; > ) ' ' ' ' ' ' ' ' | , L k 1 } } * N @ } O ^ # O P Q     ",
"    F R r v + * l 1 & k ] { ~ ) ' ' ' ' ' ' ' ' S e - ) T b } & % l _ > g y z # z m E ",
"      B C 2 U 1 C 0 } b ] { | > S e , ) > ) ' e ! ' , > ; f = b * & l a $ h 8 z t z @ ",
"  V   p W 8 X z [ i 1 k b ] f ; ! ' , ) ) ) , ' ! ! ' ) ~ ; f ] b s * } g a w C [ 9 # ",
"      Y $ c y g 9 C % } * s = - > ) ) , , , , ) ' ' ' , ) > | ; - ] = s * } 1 l % 0 i ",
"        + Z E 8 # $ 0 l } * s = | > , ! ! ! , ) , , , , , ) > ~ f - ] = s * & } * & 1 ",
"        ` a l r ( 9 i g 1 & k b ; ~ , e S e ' , > > ) , , ) > > ~ | ; f = s * * = b k ",
"        Y  .u v @ ( C 0 l } k b f ; > ' e e ! ' > > ) , , ) ) > ! ' , ~ ; f ] ] - ] b ",
"            < X y @ h w 0 l & s ] f ; > ) , , , , , ' ' ' ' , ) ! ! ' , ) ~ ~ | { f = ",
"            W : v o 8 [ i g } k b = - { | > ) ) ! ! e e e ! ' ' , , ) ) ) ) ) ) ; { ] ",
"              ..6 o t 8 v ] g & * b ] f { ~ ' S ' ' ! ! ! ' , ) , , , ) ) > > ~ ; | | ",
"                +.R r ( ' U * l & k = ] - ; > ' ) , , ' ' , ) ) ' ' , , ) ) ) > S S @.",
"                5 t n 7 y h F } 1 & s = = - ; ~ ~ > ) ) , ) ) > ' ' ' ' , , , , S @.T ",
"                V n U ..9 | c 0 g } k s b = - { | ~ > ) ) ) ) ) ' ' ' ' ' ' ' ' , ' ! ",
"                  #.6 o n # $ # a g & k s b ] - ; ; ~ > ) , , , ' ' ' ' ' ' ' ' ' ! S ",
"                $.    R m %.$ z [ w g } & k s = - f ; | > ) ) ) , , , , ' ' ' ' ' ! e ",
"                    &.  o i + o z # w % l 1 & k s b ] f ; | ~ ~ > ) ) ) , , ' ' , ' ! ",
"                        M R u z o z 9 i 0 g 1 & & * s = - { ; ; ~ > > ) ) , , , e S @.",
"                      V     *.< ^ _ y C C g 1 l & = s & * T i S ~ ~ > > > ~ ~ | e e e ",
"                        =.    R : y t < 7 v g g C k l - f f k b { ; | > ) ) ) ) | | | ",
"                    $.    V     ..p -.d 9 l 7 l 9 l w ] { i , 0 b = - { | ~ > > | ; ; ",
"                            M       < # p t z + 0 h a % } [ e l & * k b ] - f f ~ ~ | ",
"                              ;.      >.: c v i a _ } 9 w % = } } } * k s s s s ] = b ",
"                                          ,.y d 7 F % # $ } 9 i l 1 } & * * * * & & & ",
"                  4           '.  $.    ).  D F p < v ^ t $ o # C w a % l 1 1 1 1 1 1 ",
"                                M               q @ Q + 2 U o 8 t ( h $ w a 0 % a a a ",
"                                                    P . u 7 v 2 @ U C z 0 $ v 8 h [ i ",
"                                                          R ..: v ^ t P 2 U w $ C 9 t ",
"                                                                Z n U c & Q o F 7 r + ",
"                                                        M     Y !.$.~.{.M + . x u 5 d "};
