/* XPM */
static char * N_Tpipe_xpm[] = {
"57 56 97 2",
"  	c None",
". 	c #342E30",
"+ 	c #3B3537",
"@ 	c #3A3637",
"# 	c #454140",
"$ 	c #434240",
"% 	c #4B4A48",
"& 	c #4A4A48",
"* 	c #4E4E4C",
"= 	c #4D4F4C",
"- 	c #4F514E",
"; 	c #50554F",
"> 	c #545653",
", 	c #545651",
"' 	c #5A5A5A",
") 	c #5A5A58",
"! 	c #5D5B5C",
"~ 	c #605E5F",
"{ 	c #5F5D5E",
"] 	c #615F60",
"^ 	c #626061",
"/ 	c #5E5C5D",
"( 	c #5C5A5B",
"_ 	c #5B595A",
": 	c #5A5859",
"< 	c #595758",
"[ 	c #555354",
"} 	c #565455",
"| 	c #575556",
"1 	c #525051",
"2 	c #504E4F",
"3 	c #545253",
"4 	c #585657",
"5 	c #535152",
"6 	c #514F50",
"7 	c #4D4B4C",
"8 	c #4F4D4E",
"9 	c #4B494A",
"0 	c #4E4C4D",
"a 	c #434343",
"b 	c #454545",
"c 	c #3A3A3A",
"d 	c #4A4A4A",
"e 	c #4B4B4B",
"f 	c #393939",
"g 	c #474747",
"h 	c #4F4F4F",
"i 	c #555555",
"j 	c #5C5C5C",
"k 	c #5D5D5D",
"l 	c #5E5E5E",
"m 	c #5F5F5F",
"n 	c #606060",
"o 	c #535353",
"p 	c #4E4E4E",
"q 	c #424242",
"r 	c #444444",
"s 	c #404040",
"t 	c #505050",
"u 	c #3C3C3C",
"v 	c #3B3B3B",
"w 	c #3F3F3F",
"x 	c #545454",
"y 	c #414141",
"z 	c #333333",
"A 	c #2C2C2C",
"B 	c #353535",
"C 	c #2A2A2A",
"D 	c #3D3D3D",
"E 	c #484848",
"F 	c #323232",
"G 	c #242424",
"H 	c #373737",
"I 	c #343434",
"J 	c #2F2F2F",
"K 	c #2B2B2B",
"L 	c #292929",
"M 	c #222222",
"N 	c #383838",
"O 	c #4C4C4C",
"P 	c #494949",
"Q 	c #363636",
"R 	c #212121",
"S 	c #252525",
"T 	c #272727",
"U 	c #313131",
"V 	c #464646",
"W 	c #525252",
"X 	c #282828",
"Y 	c #515151",
"Z 	c #121212",
"` 	c #4D4D4D",
" .	c #151515",
"..	c #565656",
"+.	c #585858",
"@.	c #2E2E2E",
"#.	c #202020",
". . . . . . . . . . . . . . . . . . . . . . . . . . . . . . . . . . . . . . . . . . . . . . . . . . . . . . . . . ",
"+ @ + @ + @ + @ + @ + @ + @ + @ + @ + @ + @ + @ + @ + @ + @ + @ + @ + @ + @ + @ + @ + @ + @ + @ + @ + @ + @ + @ + ",
"# $ # $ # $ # $ # $ # $ # $ # $ # $ # $ # $ # $ # $ # $ # $ # $ # $ # $ # $ # $ # $ # $ # $ # $ # $ # $ # $ # $ # ",
"% & % & % & % & % & % & % & % & % & % & % & % & % & % & % & % & % & % & % & % & % & % & % & % & % & % & % & % & % ",
"* = * = * = * = * = * = * = * = * = * = * = * = * = * = * = * = * = * = * = * = * = * = * = * = * = * = * = * = * ",
"- - - - - - - - - - - - - - - - - - - - - - - - - - - - - - - - - - - - - - - - - - - - - - - - - - - - - - - - - ",
"; ; ; ; ; ; ; ; ; ; ; ; ; ; ; ; ; ; ; ; ; ; ; ; ; ; ; ; ; ; ; ; ; ; ; ; ; ; ; ; ; ; ; ; ; ; ; ; ; ; ; ; ; ; ; ; ; ",
"> , > , > , > , > , > , > , > , > , > , > , > , > , > , > , > , > , > , > , > , > , > , > , > , > , > , > , > , > ",
"' ) ' ) ' ) ' ) ' ) ' ) ' ) ' ) ' ) ' ) ' ) ' ) ' ) ' ) ' ) ' ) ' ) ' ) ' ) ' ) ' ) ' ) ' ) ' ) ' ) ' ) ' ) ' ) ' ",
"! ! ! ! ! ! ! ! ! ! ! ! ! ! ! ! ! ! ! ! ! ! ! ! ! ! ! ! ! ! ! ! ! ! ! ! ! ! ! ! ! ! ! ! ! ! ! ! ! ! ! ! ! ! ! ! ! ",
"~ ~ ~ ~ ~ ~ ~ ~ ~ ~ ~ ~ ~ ~ ~ ~ ~ ~ ~ ~ ~ ~ ~ ~ ~ ~ ~ ~ ~ ~ ~ ~ ~ ~ ~ ~ ~ ~ ~ ~ ~ ~ ~ ~ ~ ~ ~ ~ ~ ~ ~ ~ ~ ~ ~ ~ ~ ",
"~ ~ ~ ~ ~ ~ ~ ~ ~ ~ ~ ~ ~ ~ ~ ~ ~ ~ ~ ~ ~ ~ ~ ~ ~ ~ ~ ~ ~ ~ ~ ~ ~ ~ ~ ~ ~ ~ ~ ~ ~ ~ ~ ~ ~ ~ ~ ~ ~ ~ ~ ~ ~ ~ ~ ~ ~ ",
"~ ~ ~ ~ ~ ~ ~ ~ ~ ~ ~ ~ ~ ~ ~ ~ ~ ~ ~ ~ ~ ~ ~ ~ ~ ~ ~ ~ ~ ~ ~ ~ ~ ~ ~ ~ ~ ~ ~ ~ ~ ~ ~ ~ ~ ~ ~ ~ ~ ~ ~ ~ ~ ~ ~ ~ ~ ",
"{ { { { { { { { { { { { { { { { { { { { { { { { { { { { { { { { { { { { { { { { { { { { { { { { { { { { { { { { { ",
"~ ~ ~ ~ ~ ~ ~ ~ ~ ~ ~ ~ ~ ~ ~ ~ ~ ~ ~ ~ ~ ~ ~ ~ ~ ~ ~ ~ ~ ~ ~ ~ ~ ~ ~ ~ ~ ~ ~ ~ ~ ~ ~ ~ ~ ~ ~ ~ ~ ~ ~ ~ ~ ~ ~ ~ ~ ",
"] ] ] ] ] ] ] ] ] ] ] ] ] ] ] ] ] ] ] ] ] ] ] ] ] ] ] ] ] ] ] ] ] ] ] ] ] ] ] ] ] ] ] ] ] ] ] ] ] ] ] ] ] ] ] ] ] ",
"~ ~ ~ ~ ~ ~ ~ ~ ~ ~ ~ ~ ~ ~ ~ ~ ~ ^ ^ ^ ^ ] ] ] ] { ~ ~ ~ ~ { / ! ~ ] ^ ^ ^ ~ { / ~ ~ ~ ~ ~ ~ ~ ~ ~ ~ ~ ~ ~ ~ ~ ~ ",
"( ( ( ( ( ( ( ( ( ( ( ( ( ( ( ( ( ~ ~ ~ { { ~ ] ] { ~ ~ ~ ~ { / ! / { ~ ] ~ { / ! ( ( ( ( ( ( ( ( ( ( ( ( ( ( ( ( ",
"! ! ! ! ! ! ! ! ! ! ! ! ! ! ! ! ! / ! ( ( ! / ~ ] { ~ ~ ~ ~ { / ! _ ( ! / / ! ! ( ! ! ! ! ! ! ! ! ! ! ! ! ! ! ! ! ",
"( ( ( ( ( ( ( ( ( ( ( ( ( ( ( ( ( : < < < : ! ~ ^ { ~ ~ ~ ~ { / ! < < < : : : : : ( ( ( ( ( ( ( ( ( ( ( ( ( ( ( ( ",
"[ [ [ [ [ [ [ [ [ [ [ [ [ [ [ [ [ [ [ } | : ! ~ ^ { ~ ~ ~ ~ { / ! } } } } } } | | [ [ [ [ [ [ [ [ [ [ [ [ [ [ [ [ ",
"1 1 1 1 1 1 1 1 1 1 1 1 1 1 1 1 1 2 1 3 4 _ / ~ ] { ~ ~ ~ ~ { / ! [ [ 3 5 1 1 5 5 1 1 1 1 1 1 1 1 1 1 1 1 1 1 1 1 ",
"6 6 6 6 6 6 6 6 6 6 6 6 6 6 6 6 6 7 2 3 < ! ~ ] ] { ~ ~ ~ ~ { / ! [ 3 1 2 8 8 8 8 6 6 6 6 6 6 6 6 6 6 6 6 6 6 6 6 ",
"9 9 9 9 9 9 9 9 9 9 9 9 9 9 9 9 9 9 0 3 : / ] ] ] { ~ ~ ~ ~ { / ! [ 3 6 8 7 7 7 7 9 9 9 9 9 9 9 9 9 9 9 9 9 9 9 9 ",
"a a a a a a a a a b c d e f g c g d h i ' j k l m l m n n m k j ' i i o p g a q r d f g b s q t u a a a a a a a a ",
"q q q q q q q q q q f v s g q b w d h i ' j k l m l m n n m k j ' x x o p g q s s f e y e y f b y q q q q q q q q ",
"z z z z z z z z z A B B z v C D a d h i ' j k l m l m n n m k j ' o x o h E y D v F a G H v B I J z z z z z z z z ",
"K K K K K K K K K B B L M L N K O d h i ' j k l m l m n n m k j ' o o o h P y c Q B R J S G T U F K K K K K K K K ",
"                              V f d h i ' j k l m l m n n m k j ' o o W h P y f z S X                             ",
"                              H a d h i ' j k l m l m n n m k j ' x o Y p d q c I B Z                             ",
"                              z d d h i ' j k l m l m n n m k j ' i o t ` d r u Q f  .                            ",
"                              y a d h i ' j k l m l m n n m k j ' ..o h ` d b D H K K                             ",
"                              u a d h i ' j k l m l m n n m k j ' x +.` t O w s I @.#.                            ",
"                              u a d h i ' j k l m l m n n m k j ' x +.` t O w s I @.#.                            ",
"                              u a d h i ' j k l m l m n n m k j ' x +.` t O w s I @.#.                            ",
"                              u a d h i ' j k l m l m n n m k j ' x +.` t O w s I @.#.                            ",
"                              u a d h i ' j k l m l m n n m k j ' x +.` t O w s I @.#.                            ",
"                              u a d h i ' j k l m l m n n m k j ' x +.` t O w s I @.#.                            ",
"                              u a d h i ' j k l m l m n n m k j ' x +.` t O w s I @.#.                            ",
"                              u a d h i ' j k l m l m n n m k j ' x +.` t O w s I @.#.                            ",
"                              u a d h i ' j k l m l m n n m k j ' x +.` t O w s I @.#.                            ",
"                              u a d h i ' j k l m l m n n m k j ' x +.` t O w s I @.#.                            ",
"                              u a d h i ' j k l m l m n n m k j ' x +.` t O w s I @.#.                            ",
"                              u a d h i ' j k l m l m n n m k j ' x +.` t O w s I @.#.                            ",
"                              u a d h i ' j k l m l m n n m k j ' x +.` t O w s I @.#.                            ",
"                              u a d h i ' j k l m l m n n m k j ' x +.` t O w s I @.#.                            ",
"                              u a d h i ' j k l m l m n n m k j ' x +.` t O w s I @.#.                            ",
"                              u a d h i ' j k l m l m n n m k j ' x +.` t O w s I @.#.                            ",
"                              u a d h i ' j k l m l m n n m k j ' x +.` t O w s I @.#.                            ",
"                              u a d h i ' j k l m l m n n m k j ' x +.` t O w s I @.#.                            ",
"                              u a d h i ' j k l m l m n n m k j ' x +.` t O w s I @.#.                            ",
"                              u a d h i ' j k l m l m n n m k j ' x +.` t O w s I @.#.                            ",
"                              u a d h i ' j k l m l m n n m k j ' x +.` t O w s I @.#.                            ",
"                              u a d h i ' j k l m l m n n m k j ' x +.` t O w s I @.#.                            ",
"                              u a d h i ' j k l m l m n n m k j ' x +.` t O w s I @.#.                            ",
"                              u a d h i ' j k l m l m n n m k j ' x +.` t O w s I @.#.                            "};
