/* XPM */
static char * NWpipe_xpm[] = {
"44 43 111 2",
"  	c None",
". 	c #181818",
"+ 	c #3B3B3B",
"@ 	c #404040",
"# 	c #474747",
"$ 	c #4D4D4D",
"% 	c #515151",
"& 	c #535353",
"* 	c #545454",
"= 	c #555555",
"- 	c #5A5A5A",
"; 	c #636363",
"> 	c #646464",
", 	c #606060",
"' 	c #626262",
") 	c #616161",
"! 	c #595959",
"~ 	c #4F4F4F",
"{ 	c #484848",
"] 	c #3D3D3D",
"^ 	c #313131",
"/ 	c #2B2B2B",
"( 	c #E5E5E5",
"_ 	c #2D2D2D",
": 	c #3C3C3C",
"< 	c #424242",
"[ 	c #494949",
"} 	c #575757",
"| 	c #585858",
"1 	c #5F5F5F",
"2 	c #5B5B5B",
"3 	c #434343",
"4 	c #363636",
"5 	c #242424",
"6 	c #1C1C1C",
"7 	c #4A4A4A",
"8 	c #505050",
"9 	c #565656",
"0 	c #5E5E5E",
"a 	c #414141",
"b 	c #454545",
"c 	c #393939",
"d 	c #1D1D1D",
"e 	c #1E1E1E",
"f 	c #4C4C4C",
"g 	c #4E4E4E",
"h 	c #5D5D5D",
"i 	c #5C5C5C",
"j 	c #525252",
"k 	c #3E3E3E",
"l 	c #444444",
"m 	c #2A2A2A",
"n 	c #101010",
"o 	c #1F1F1F",
"p 	c #464646",
"q 	c #333333",
"r 	c #383838",
"s 	c #272727",
"t 	c #373737",
"u 	c #353535",
"v 	c #ECECEC",
"w 	c #343434",
"x 	c #3A3A3A",
"y 	c #4B4B4B",
"z 	c #E8E8E8",
"A 	c #2E2E2E",
"B 	c #F2F2F2",
"C 	c #252525",
"D 	c #323232",
"E 	c #EFEFEF",
"F 	c #3F3F3F",
"G 	c #232323",
"H 	c #E7E7E7",
"I 	c #666666",
"J 	c #131313",
"K 	c #F9F9F9",
"L 	c #E6E6E6",
"M 	c #E9E9E9",
"N 	c #D3D3D3",
"O 	c #151515",
"P 	c #212121",
"Q 	c #1A1A1A",
"R 	c #292929",
"S 	c #282828",
"T 	c #696969",
"U 	c #707070",
"V 	c #303030",
"W 	c #202020",
"X 	c #141414",
"Y 	c #E2E2E2",
"Z 	c #0D0D0D",
"` 	c #161616",
" .	c #E3E3E3",
"..	c #DADADA",
"+.	c #1B1B1B",
"@.	c #121212",
"#.	c #EBEBEB",
"$.	c #E0E0E0",
"%.	c #2F2F2F",
"&.	c #DFDFDF",
"*.	c #DDDDDD",
"=.	c #262626",
"-.	c #2C2C2C",
";.	c #171717",
">.	c #191919",
",.	c #DCDCDC",
"'.	c #0C0C0C",
").	c #000000",
"!.	c #050505",
"~.	c #FFFFFF",
"{.	c #D9D9D9",
"                              . + @ # $ % & * = - ; > , ' ) , ; ) - ! - & ~ $ { # ] ^ / ",
"                    (         _ : < [ ~ & = } | - ' ; 1 , , 1 ' ) - ! 2 * ~ $ { 3 < 4 5 ",
"                            6 : ] 3 7 8 * 9 | ! ! ' ' 0 1 1 0 ) ) - - 2 = ~ $ { a b c d ",
"                            e @ : b f g 8 = - h 2 i 0 1 1 1 1 0 - h i } j 8 $ 7 k l m n ",
"                            o : k p $ ~ 8 = 2 h i h 0 1 1 1 1 0 2 h i } j 8 $ [ q p r s ",
"                            @ t a { g 8 j } 2 h i h 0 1 1 1 0 0 2 h 2 9 j 8 $ { l u 6 ^ ",
"                      v   w x y l y 8 j * ! h h h h 0 1 1 1 0 h i h - = j 8 f p [ w ~ z ",
"                        n @ o i { g j * } 2 0 h h 0 1 1 1 0 h h i i | & % ~ 7 l : e A B ",
"                        C { g D f 8 * = ! 0 1 h 0 0 1 1 1 0 h i i - 9 % 8 g { a b ] u E ",
"                    v D g ^ + f ~ j = 9 - 1 , 0 0 1 1 1 1 0 h i 2 ! * 8 g $ p F u x G H ",
"                    m A l r I 7 8 & 9 } 2 , , 0 0 1 1 1 1 0 i 2 2 | & ~ g f b ] + q J K ",
"                  y _ p ] g 8 ~ & = ! 2 i i h 1 h h i h 0 h 2 ! ' & [ f g # @ k w C   L ",
"  M   N       _ : O l } f ! g g * } - i i h 0 1 0 h h h 0 h 2 ! # % 0 ) * < r r q P     ",
"          5 ] ^ 7 [ 9 F l i g & } ! i h h h 1 , 1 0 h h 0 h - | > } # 3 7 g l u c Q     ",
"D R / [ { S 8 + t b ! j 9 | $ > ! 2 h 0 0 0 1 ) , 1 0 h h i ! 9 8 } | g p l ] w d     z ",
"+ w A # _ } 7 y } y g ~ ~ 8 % h i h 0 0 0 0 1 ) , 1 h h i - } * ~ 9 = 7 < @ x ^ s       ",
"F $ * a % - 4 h i ~ g * 2 T T 9 0 1 1 0 h h 1 ) , 0 h i 2 ! = j j f p { g 7 q 6 e       ",
"U 3 & 8 y y g + l | ) 0 % ~ 0 ) 1 , 1 0 i i 0 , 1 0 i 2 ! } & 8 * % f a D m V +         ",
"x h { y f % = 1 2 i 8 i T i - ' , , 1 0 i i 0 , 1 h 2 - ! 9 j ~ ~ b < [ { c S W         ",
"= = 9 } | | ! - 1 1 1 1 1 1 1 1 ) 1 h h 0 1 0 h ' 1 2 | 9 * % ~ f y f ^ # / m           ",
"| | ! ! - 2 i i 1 1 1 1 1 1 1 1 1 0 0 0 1 , 0 h 1 i ! 9 = j ~ $ $ y c : q t O           ",
"2 i i h 0 0 1 1 1 1 1 1 1 1 1 1 h h 0 , ) ) 0 i 2 ! 9 * & % $ y y q f ] A X             ",
"h 0 0 1 1 , , , 1 1 1 1 1 1 1 1 i h 0 , ' ) h - | 9 * & j ~ f [ b c < S C   Y           ",
"0 0 0 0 1 1 1 1 1 1 1 1 1 1 1 1 h h 0 , ) 1 i | } = * j % g 7 # b V / @ Z               ",
"0 0 0 0 0 0 0 0 1 1 1 1 1 1 1 1 0 0 h 0 0 i ! 9 = * j % ~ y p < t ] ` V                 ",
"1 1 1 1 1 1 1 1 1 1 1 1 1 1 1 1 ) 1 h i 2 ! } * & % ~ g y p @ : D t S       H           ",
", , , , , 1 1 1 1 1 1 1 1 1 1 1 ' , i - ! } = & 8 ~ $ y { 3 : r x C P         z         ",
"h 0 1 , , 1 1 0 , , 1 1 0 0 h h i ! 9 * & & j % ~ f g [ @ : r : V Q      .  ..          ",
"0 1 , , , , 1 0 , , 1 0 h i i 2 - } * j % % ~ g y 8 m A l l ^ d +.    z                 ",
"1 1 , ) ) , 1 0 , 1 0 h 2 - ! | | = j 8 ~ g f y = u a - @ @.# Q     #.                  ",
"0 1 , , , 1 0 h 0 h i - ! } = = = & 8 g $ f [ # q 1 t < G _ r z   $.                    ",
"i h h 0 h i 2 - 2 - ! } = & j % & % g f y [ p 3 k F c P r Q     #.                      ",
"! - - - ! | 9 = 9 9 = & j 8 ~ ~ g $ 7 [ # b a k ] 4 G u %.  &.      H                   ",
"9 9 9 9 = * j % j j % 8 ~ g g $ [ # b l < F + r r Q ] G *.                  M           ",
"* * * * & % 8 ~ ~ ~ ~ g g $ $ f b 3 < @ F + t q %.=.5 #.  H                             ",
"8 ~ ~ 8 % % ~ $ l { $ } @ 2 + 8 $ : y k 4 q -.C P                                       ",
"~ g g ~ 8 8 $ y { & F < b r a ^ u -.t . f d V ;.                                        ",
"7 7 [ 7 y 7 { p { b c p ] ~ + q w k A J { >.                                            ",
"l 3 < 3 l 3 @ k c @ m F %.c A 4 b ;.l ^ ,.L                                             ",
"@ F k k F k + c ] $ C ! D %.4 Q '.S L                                                   ",
"+ x c c x r 4 q 5 5 % ).D R . m                                                         ",
"^ V %.%.%.A / S r '.. : !.        #.                                                    ",
"s C 5 5 5 G W d n ~.~.{.  z                                                             "};
