/* XPM */
static char * S_Tpipe_xpm[] = {
"57 56 97 2",
"  	c None",
". 	c #202020",
"+ 	c #2E2E2E",
"@ 	c #343434",
"# 	c #404040",
"$ 	c #3F3F3F",
"% 	c #4C4C4C",
"& 	c #505050",
"* 	c #4D4D4D",
"= 	c #585858",
"- 	c #545454",
"; 	c #5A5A5A",
"> 	c #5C5C5C",
", 	c #5D5D5D",
"' 	c #5F5F5F",
") 	c #606060",
"! 	c #5E5E5E",
"~ 	c #555555",
"{ 	c #4F4F4F",
"] 	c #4A4A4A",
"^ 	c #434343",
"/ 	c #3C3C3C",
"( 	c #2B2B2B",
"_ 	c #373737",
": 	c #3D3D3D",
"< 	c #454545",
"[ 	c #535353",
"} 	c #565656",
"| 	c #414141",
"1 	c #151515",
"2 	c #393939",
"3 	c #363636",
"4 	c #444444",
"5 	c #333333",
"6 	c #121212",
"7 	c #353535",
"8 	c #3A3A3A",
"9 	c #424242",
"0 	c #4E4E4E",
"a 	c #515151",
"b 	c #282828",
"c 	c #252525",
"d 	c #494949",
"e 	c #525252",
"f 	c #464646",
"g 	c #323232",
"h 	c #313131",
"i 	c #272727",
"j 	c #242424",
"k 	c #2F2F2F",
"l 	c #212121",
"m 	c #383838",
"n 	c #292929",
"o 	c #222222",
"p 	c #3B3B3B",
"q 	c #484848",
"r 	c #2A2A2A",
"s 	c #2C2C2C",
"t 	c #4B4B4B",
"u 	c #474747",
"v 	c #4B494A",
"w 	c #4D4B4C",
"x 	c #4F4D4E",
"y 	c #514F50",
"z 	c #545253",
"A 	c #555354",
"B 	c #5D5B5C",
"C 	c #5E5C5D",
"D 	c #5F5D5E",
"E 	c #605E5F",
"F 	c #615F60",
"G 	c #5A5859",
"H 	c #4E4C4D",
"I 	c #504E4F",
"J 	c #525051",
"K 	c #595758",
"L 	c #535152",
"M 	c #5B595A",
"N 	c #585657",
"O 	c #575556",
"P 	c #565455",
"Q 	c #626061",
"R 	c #5C5A5B",
"S 	c #5A5A58",
"T 	c #545653",
"U 	c #545651",
"V 	c #50554F",
"W 	c #4F514E",
"X 	c #4E4E4C",
"Y 	c #4D4F4C",
"Z 	c #4B4A48",
"` 	c #4A4A48",
" .	c #454140",
"..	c #434240",
"+.	c #3B3537",
"@.	c #3A3637",
"#.	c #342E30",
"                            . + @ # $ % & * = - ; > , ' ) ) ' ! ' ! , > ; ~ { ] ^ /                               ",
"                            . + @ # $ % & * = - ; > , ' ) ) ' ! ' ! , > ; ~ { ] ^ /                               ",
"                            . + @ # $ % & * = - ; > , ' ) ) ' ! ' ! , > ; ~ { ] ^ /                               ",
"                            . + @ # $ % & * = - ; > , ' ) ) ' ! ' ! , > ; ~ { ] ^ /                               ",
"                            . + @ # $ % & * = - ; > , ' ) ) ' ! ' ! , > ; ~ { ] ^ /                               ",
"                            . + @ # $ % & * = - ; > , ' ) ) ' ! ' ! , > ; ~ { ] ^ /                               ",
"                            . + @ # $ % & * = - ; > , ' ) ) ' ! ' ! , > ; ~ { ] ^ /                               ",
"                            . + @ # $ % & * = - ; > , ' ) ) ' ! ' ! , > ; ~ { ] ^ /                               ",
"                            . + @ # $ % & * = - ; > , ' ) ) ' ! ' ! , > ; ~ { ] ^ /                               ",
"                            . + @ # $ % & * = - ; > , ' ) ) ' ! ' ! , > ; ~ { ] ^ /                               ",
"                            . + @ # $ % & * = - ; > , ' ) ) ' ! ' ! , > ; ~ { ] ^ /                               ",
"                            . + @ # $ % & * = - ; > , ' ) ) ' ! ' ! , > ; ~ { ] ^ /                               ",
"                            . + @ # $ % & * = - ; > , ' ) ) ' ! ' ! , > ; ~ { ] ^ /                               ",
"                            . + @ # $ % & * = - ; > , ' ) ) ' ! ' ! , > ; ~ { ] ^ /                               ",
"                            . + @ # $ % & * = - ; > , ' ) ) ' ! ' ! , > ; ~ { ] ^ /                               ",
"                            . + @ # $ % & * = - ; > , ' ) ) ' ! ' ! , > ; ~ { ] ^ /                               ",
"                            . + @ # $ % & * = - ; > , ' ) ) ' ! ' ! , > ; ~ { ] ^ /                               ",
"                            . + @ # $ % & * = - ; > , ' ) ) ' ! ' ! , > ; ~ { ] ^ /                               ",
"                            . + @ # $ % & * = - ; > , ' ) ) ' ! ' ! , > ; ~ { ] ^ /                               ",
"                            . + @ # $ % & * = - ; > , ' ) ) ' ! ' ! , > ; ~ { ] ^ /                               ",
"                            . + @ # $ % & * = - ; > , ' ) ) ' ! ' ! , > ; ~ { ] ^ /                               ",
"                            . + @ # $ % & * = - ; > , ' ) ) ' ! ' ! , > ; ~ { ] ^ /                               ",
"                            . + @ # $ % & * = - ; > , ' ) ) ' ! ' ! , > ; ~ { ] ^ /                               ",
"                            . + @ # $ % & * = - ; > , ' ) ) ' ! ' ! , > ; ~ { ] ^ /                               ",
"                            ( ( _ : < ] * { [ } ; > , ' ) ) ' ! ' ! , > ; ~ { ] ^ |                               ",
"                            1 2 3 / 4 ] * & [ ~ ; > , ' ) ) ' ! ' ! , > ; ~ { ] ] 5                               ",
"                            6 7 @ 8 9 ] 0 a [ - ; > , ' ) ) ' ! ' ! , > ; ~ { ] ^ _                               ",
"                            b c 5 2 | d { e [ [ ; > , ' ) ) ' ! ' ! , > ; ~ { ] 2 f                               ",
"( ( ( ( ( ( ( ( g h i j c k l 7 3 8 | d { [ [ [ ; > , ' ) ) ' ! ' ! , > ; ~ { ] % ( m n o n 7 7 ( ( ( ( ( ( ( ( ( ",
"5 5 5 5 5 5 5 5 k @ 7 p _ j ^ g p : | q { [ - [ ; > , ' ) ) ' ! ' ! , > ; ~ { ] ^ : r p 5 7 7 s 5 5 5 5 5 5 5 5 5 ",
"9 9 9 9 9 9 9 9 | < 2 | t | t 2 # # 9 u 0 [ - - ; > , ' ) ) ' ! ' ! , > ; ~ { ] $ < 9 u # p 2 9 9 9 9 9 9 9 9 9 9 ",
"^ ^ ^ ^ ^ ^ ^ ^ / & 9 # < u 2 ] 4 9 ^ u 0 [ ~ ~ ; > , ' ) ) ' ! ' ! , > ; ~ { ] u 8 u 2 t ] 8 < ^ ^ ^ ^ ^ ^ ^ ^ ^ ",
"v v v v v v v v v v v v v v v v w w w w x y z A B C D E E E E D F F F C G z H v v v v v v v v v v v v v v v v v v ",
"y y y y y y y y y y y y y y y y x x x x I J z A B C D E E E E D F F E B K z I w y y y y y y y y y y y y y y y y y ",
"J J J J J J J J J J J J J J J J L L J J L z A A B C D E E E E D F E C M N z J I J J J J J J J J J J J J J J J J J ",
"A A A A A A A A A A A A A A A A O O P P P P P P B C D E E E E D Q E B G O P A A A A A A A A A A A A A A A A A A A ",
"R R R R R R R R R R R R R R R R G G G G G K K K B C D E E E E D Q E B G K K K G R R R R R R R R R R R R R R R R R ",
"B B B B B B B B B B B B B B B B R B B C C B R M B C D E E E E D F E C B R R B C B B B B B B B B B B B B B B B B B ",
"R R R R R R R R R R R R R R R R B C D E F E D C B C D E E E E D F F E D D E E E R R R R R R R R R R R R R R R R R ",
"E E E E E E E E E E E E E E E E C D E Q Q Q F E B C D E E E E D F F F F Q Q Q Q E E E E E E E E E E E E E E E E E ",
"F F F F F F F F F F F F F F F F F F F F F F F F F F F F F F F F F F F F F F F F F F F F F F F F F F F F F F F F F ",
"E E E E E E E E E E E E E E E E E E E E E E E E E E E E E E E E E E E E E E E E E E E E E E E E E E E E E E E E E ",
"D D D D D D D D D D D D D D D D D D D D D D D D D D D D D D D D D D D D D D D D D D D D D D D D D D D D D D D D D ",
"E E E E E E E E E E E E E E E E E E E E E E E E E E E E E E E E E E E E E E E E E E E E E E E E E E E E E E E E E ",
"E E E E E E E E E E E E E E E E E E E E E E E E E E E E E E E E E E E E E E E E E E E E E E E E E E E E E E E E E ",
"E E E E E E E E E E E E E E E E E E E E E E E E E E E E E E E E E E E E E E E E E E E E E E E E E E E E E E E E E ",
"B B B B B B B B B B B B B B B B B B B B B B B B B B B B B B B B B B B B B B B B B B B B B B B B B B B B B B B B B ",
"; S ; S ; S ; S ; S ; S ; S ; S ; S ; S ; S ; S ; S ; S ; S ; S ; S ; S ; S ; S ; S ; S ; S ; S ; S ; S ; S ; S ; ",
"T U T U T U T U T U T U T U T U T U T U T U T U T U T U T U T U T U T U T U T U T U T U T U T U T U T U T U T U T ",
"V V V V V V V V V V V V V V V V V V V V V V V V V V V V V V V V V V V V V V V V V V V V V V V V V V V V V V V V V ",
"W W W W W W W W W W W W W W W W W W W W W W W W W W W W W W W W W W W W W W W W W W W W W W W W W W W W W W W W W ",
"X Y X Y X Y X Y X Y X Y X Y X Y X Y X Y X Y X Y X Y X Y X Y X Y X Y X Y X Y X Y X Y X Y X Y X Y X Y X Y X Y X Y X ",
"Z ` Z ` Z ` Z ` Z ` Z ` Z ` Z ` Z ` Z ` Z ` Z ` Z ` Z ` Z ` Z ` Z ` Z ` Z ` Z ` Z ` Z ` Z ` Z ` Z ` Z ` Z ` Z ` Z ",
" ... ... ... ... ... ... ... ... ... ... ... ... ... ... ... ... ... ... ... ... ... ... ... ... ... ... ... ... .",
"+.@.+.@.+.@.+.@.+.@.+.@.+.@.+.@.+.@.+.@.+.@.+.@.+.@.+.@.+.@.+.@.+.@.+.@.+.@.+.@.+.@.+.@.+.@.+.@.+.@.+.@.+.@.+.@.+.",
"#.#.#.#.#.#.#.#.#.#.#.#.#.#.#.#.#.#.#.#.#.#.#.#.#.#.#.#.#.#.#.#.#.#.#.#.#.#.#.#.#.#.#.#.#.#.#.#.#.#.#.#.#.#.#.#.#."};
