/* XPM */
static char * SWpipe_xpm[] = {
"43 44 111 2",
"  	c None",
". 	c #2B2B2B",
"+ 	c #242424",
"@ 	c #1D1D1D",
"# 	c #101010",
"$ 	c #272727",
"% 	c #313131",
"& 	c #E8E8E8",
"* 	c #F2F2F2",
"= 	c #EFEFEF",
"- 	c #E7E7E7",
"; 	c #F9F9F9",
"> 	c #E6E6E6",
", 	c #363636",
"' 	c #393939",
") 	c #2A2A2A",
"! 	c #383838",
"~ 	c #1C1C1C",
"{ 	c #4F4F4F",
"] 	c #2E2E2E",
"^ 	c #353535",
"/ 	c #232323",
"( 	c #131313",
"_ 	c #3D3D3D",
": 	c #424242",
"< 	c #454545",
"[ 	c #444444",
"} 	c #464646",
"| 	c #343434",
"1 	c #1E1E1E",
"2 	c #3A3A3A",
"3 	c #333333",
"4 	c #252525",
"5 	c #212121",
"6 	c #1A1A1A",
"7 	c #474747",
"8 	c #434343",
"9 	c #414141",
"0 	c #3E3E3E",
"a 	c #494949",
"b 	c #3C3C3C",
"c 	c #3B3B3B",
"d 	c #484848",
"e 	c #4A4A4A",
"f 	c #3F3F3F",
"g 	c #202020",
"h 	c #4D4D4D",
"i 	c #4C4C4C",
"j 	c #404040",
"k 	c #303030",
"l 	c #282828",
"m 	c #151515",
"n 	c #E2E2E2",
"o 	c #DADADA",
"p 	c #E9E9E9",
"q 	c #505050",
"r 	c #4E4E4E",
"s 	c #373737",
"t 	c #141414",
"u 	c #535353",
"v 	c #545454",
"w 	c #555555",
"x 	c #525252",
"y 	c #515151",
"z 	c #323232",
"A 	c #0D0D0D",
"B 	c #E3E3E3",
"C 	c #5A5A5A",
"D 	c #5B5B5B",
"E 	c #575757",
"F 	c #565656",
"G 	c #616161",
"H 	c #595959",
"I 	c #5C5C5C",
"J 	c #585858",
"K 	c #5E5E5E",
"L 	c #161616",
"M 	c #EBEBEB",
"N 	c #5D5D5D",
"O 	c #4B4B4B",
"P 	c #E0E0E0",
"Q 	c #626262",
"R 	c #646464",
"S 	c #1B1B1B",
"T 	c #636363",
"U 	c #606060",
"V 	c #5F5F5F",
"W 	c #DFDFDF",
"X 	c #121212",
"Y 	c #2D2D2D",
"Z 	c #2F2F2F",
"` 	c #DDDDDD",
" .	c #262626",
"..	c #171717",
"+.	c #2C2C2C",
"@.	c #191919",
"#.	c #DCDCDC",
"$.	c #181818",
"%.	c #0C0C0C",
"&.	c #1F1F1F",
"*.	c #666666",
"=.	c #696969",
"-.	c #292929",
";.	c #050505",
">.	c #ECECEC",
",.	c #000000",
"'.	c #D9D9D9",
").	c #E5E5E5",
"!.	c #FFFFFF",
"~.	c #D3D3D3",
"{.	c #707070",
". + @ # $ % & * = - ; >     &                                                         ",
"% , ' ) ! ~ { ] ^ / (                                                                 ",
"_ : < [ } ^ | 1 _ 2 3 4 5 6                                                           ",
"7 8 9 0 3 [ a b < ^ c | 3 ' @ $ 1                                                     ",
"d d d e a d } [ 9 f _ 0 ! ^ | % ~ c g               &                                 ",
"h h h h h h i e d } < j ! [ _ 2 3 k l ) m   n     -   o           p                   ",
"{ { { q q q q { r h i 7 : r [ j e ) ' . s t                                           ",
"u v w x x x x y q r r r v e } : r z d 7 3 ] 4 A       B                               ",
"C D D E E F w u y q { i G 8 r e d 9 a % b _ l j k       &                             ",
"H H C I I D C J F v u a K 7 J w } i : i ' i : . L l 5     M     -                     ",
"C C C N N N N I C H J u y E E F i y < O O 3 ' k _ s 4 6     P                         ",
"G G G C D D I I I D D Q 7 R q { x v { i h O < < s z 2 k S     M                       ",
"T Q G K K K N N I I D H H J F v x q { { h O a 7 : b ! b @ 6 &                         ",
"U V K V V K K N N N I D D C H E w u x y { h i e } j b ! % 7 !   W                     ",
"G U V V V V V K K K K N N N I C H E F v x y { r O } 8 b [ X Y 6     -                 ",
"Q U V V V V V V V V V K K K N I D H H F w u x y { O d j [ j / ! Z `                   ",
"U V K V V V V V V V V N N N N N I D C J F v u x y r O a ] C : 5 ^ / M                 ",
"R T Q K K K K V V V V I N N K N N I D D H F v v x { h r ) 9 s ' / _ +                 ",
"T Q Q I N N N K K V V N N K V V K K N V I H F w v y { i q ^ V f , 6  .                ",
"C C H D I I N N K K K N K V U U U V V Q V D J E w u q { O w 3 0 _ ! Z 5               ",
"w J H N N N N N N K K V V U G G G U U N N I C J F v u y r O 7 8 0 ! 3 4 ..            ",
"v E J C D D N K V U U N K V V V V K K K K K N I H E w x { i a } 9 c s +.k             ",
"u w F w w E H D K V U I N N K K N I I V U G G V I H E u y r i a < f c 3 @ @.>         ",
"y u v q q x v E H C D I I N K K N I I K V G Q G K D H u y { h O 7 : f , i d #.        ",
"h { q r { q x v w F E D I N K K K K K N K U U U K I C v x q r i a [ j 0 $.( %         ",
"7 a e i h r q x v w F H C I N K V V V N K K K K N N I F v x q r e < : O s ] [ >       ",
"j : 8 < } d O r q x u w E H D N V U U V K N N N K V U H E w u y h 7 8 b +.0 ..l   M   ",
"c b _ b 0 9 [ d i { q u v E H I K V U G V N I N K G Q I C J w u r a < h ^ | < %.      ",
"$.Y b j b s O I z i e { r u R N F G Q V V V V V V V V N D J w y { h i q % 3 , 6 )     ",
"    ~ 1 &.j 2 &.r c *.q r r h y =.K C V V V V V V V V N I H w x { r h c 9 c ] , $.    ",
"            | j d % ! r H I J q =.{ I V V V V V V V V K I C E u q r h D ! { ' Z -.  & ",
"              # 4 r [ _ i [ F { D y =.V V V V V V V V K N D H w x { r j < _ Z z z ;.  ",
"            >.    z ] } E f x { v K I V V V V V V V V V K N C E u q r E : } f H ,.b '.",
"  ).              >.) Y [ F H r r G q V V V V V V V V V V K I H w y { h f ' ) 4 y $.!.",
"                      O m a < O { J I V V V V V V V V U U V N C F x { d u < j h + %.!.",
"                        b e s E I [ D V V V V V V V V U U U K D F x { [ d d ' _ + ! # ",
"                        Y % c O N c V C I V U V K V V K K K N C w y { h O } 0 ' 3 l @ ",
"                          _ q e , r w H I V U V K V V V V V K D F x q { h d j c , . g ",
"                          + l E C O y J D K U V K V V V U U V I J v y y q e 8 0 ! ] / ",
"                            d Y y O i J C K V V K V U U U G U N H w u y q O [ f 2 Z + ",
"                        ~.  a 7 9 q O E H N V K K V U U U G U K C F v q { e 8 0 ' Z + ",
"                            . ] v u d F H I K K K V U V U U U N C F v { r a : 0 ' Z + ",
"                        p   -.| h 8 N w J I K K K V U K V V V N C F v { r e 8 f 2 k 4 ",
"                            z c f {.2 w J D N K K V U N K V K I H F v q { e [ j c % $ "};
