/* XPM */
static char * Vpipe_xpm[] = {
"30 29 24 1",
" 	c None",
".	c #1A1A1A",
"+	c #232323",
"@	c #2F2F2F",
"#	c #393939",
"$	c #3F3F3F",
"%	c #444444",
"&	c #4A4A4A",
"*	c #4E4E4E",
"=	c #505050",
"-	c #525252",
";	c #565656",
">	c #595959",
",	c #5C5C5C",
"'	c #5E5E5E",
")	c #5F5F5F",
"!	c #606060",
"~	c #5D5D5D",
"{	c #585858",
"]	c #555555",
"^	c #515151",
"/	c #414141",
"(	c #404040",
"_	c #2A2A2A",
".+@#$%&*=-;>,'')'!!')!~{]*^/(_",
".+@#$%&*=-;>,'')'!!')!~{]*^/(_",
".+@#$%&*=-;>,'')'!!')!~{]*^/(_",
".+@#$%&*=-;>,'')'!!')!~{]*^/(_",
".+@#$%&*=-;>,'')'!!')!~{]*^/(_",
".+@#$%&*=-;>,'')'!!')!~{]*^/(_",
".+@#$%&*=-;>,'')'!!')!~{]*^/(_",
".+@#$%&*=-;>,'')'!!')!~{]*^/(_",
".+@#$%&*=-;>,'')'!!')!~{]*^/(_",
".+@#$%&*=-;>,'')'!!')!~{]*^/(_",
".+@#$%&*=-;>,'')'!!')!~{]*^/(_",
".+@#$%&*=-;>,'')'!!')!~{]*^/(_",
".+@#$%&*=-;>,'')'!!')!~{]*^/(_",
".+@#$%&*=-;>,'')'!!')!~{]*^/(_",
".+@#$%&*=-;>,'')'!!')!~{]*^/(_",
".+@#$%&*=-;>,'')'!!')!~{]*^/(_",
".+@#$%&*=-;>,'')'!!')!~{]*^/(_",
".+@#$%&*=-;>,'')'!!')!~{]*^/(_",
".+@#$%&*=-;>,'')'!!')!~{]*^/(_",
".+@#$%&*=-;>,'')'!!')!~{]*^/(_",
".+@#$%&*=-;>,'')'!!')!~{]*^/(_",
".+@#$%&*=-;>,'')'!!')!~{]*^/(_",
".+@#$%&*=-;>,'')'!!')!~{]*^/(_",
".+@#$%&*=-;>,'')'!!')!~{]*^/(_",
".+@#$%&*=-;>,'')'!!')!~{]*^/(_",
".+@#$%&*=-;>,'')'!!')!~{]*^/(_",
".+@#$%&*=-;>,'')'!!')!~{]*^/(_",
".+@#$%&*=-;>,'')'!!')!~{]*^/(_",
".+@#$%&*=-;>,'')'!!')!~{]*^/(_"};
