/* XPM */
static char * on_xpm[] = {
"17 17 3 1",
" 	c None",
".	c #D7D7D7",
"+	c #00D137",
".................",
".....+++++++.....",
"...+++++++++++...",
"..+++++++++++++..",
"..+++++++++++++..",
".+++++++++++++++.",
".+++++++++++++++.",
".+++++++++++++++.",
".+++++++++++++++.",
".+++++++++++++++.",
".+++++++++++++++.",
".+++++++++++++++.",
"..+++++++++++++..",
"..+++++++++++++..",
"...+++++++++++...",
".....+++++++.....",
"................."};
