/* XPM */
static char *on2[]={
"17 17 3 1",
"a c #000000",
"# c #00d137",
". c #d7d7d7",
".................",
".....#######.....",
"...###########...",
"..#####a#a#####..",
"..#####a#a#####..",
".######a#a######.",
".######a#a######.",
".######a#a######.",
".######a#a######.",
".######a#a######.",
".######a#a######.",
".######a#a######.",
"..#####a#a#####..",
"..#####a#a#####..",
"...###########...",
".....#######.....",
"................."};
