/* XPM */
static char *rot1[]={
"17 17 4 1",
"# c None",
"a c #000000",
"b c #c00000",
". c #d7d7d7",
"................#",
".....###########.",
"...###########a#.",
"..##########aa##.",
"..#########aaa##.",
".#########aaa####",
".#########aa#####",
".#######ba#######",
".######bbb######.",
".######ab#######.",
".####aa#########.",
".###aaa#########.",
".##aaa##########.",
".##aa##########..",
"..a###########...",
".#..########.....",
"#.......#.#......"};
