/* XPM */
static char *rot2[]={
"17 17 4 1",
"# c None",
"a c #000000",
"b c #c00000",
". c #d7d7d7",
"................#",
".....############",
"...#############.",
"..##############.",
"..##############.",
".################",
".################",
".#aaa##b#b##aaa##",
"aaaaaaa#b#aaaaaaa",
".#aaa##b#b##aaa#.",
".###############.",
".###############.",
".###############.",
".##############..",
".#############...",
"##..########.....",
"#.......#.#......"};
