/* XPM */
static char *rot4[]={
"17 17 4 1",
". c None",
"a c #000000",
"b c #c00000",
"# c #d7d7d7",
"..######a#######.",
"#..##...a........",
"##.....aaa......#",
"##.....aaa......#",
"##.....aaa......#",
"#.......a........",
"#.......a........",
"#......b.b.......",
"........b........",
"#......b.b......#",
"#.......a.......#",
"#.......a.......#",
"#......aaa......#",
"#......aaa.....##",
"#......aaa......#",
"..##....a...###..",
".#######a#.#####."};
